<svg xmlns="http://www.w3.org/2000/svg" width="1320" height="710" viewBox="0 0 1320 710">
<rect width="100%" height="100%" fill="#fffdf8"/>
<text x="660.0" y="36" text-anchor="middle" font-family="Helvetica, Arial, sans-serif" font-size="24" fill="#222222">Mean MNIST Test Accuracy Across Seeds</text>
<line x1="430" y1="650" x2="1190" y2="650" stroke="#333333" stroke-width="2"/>
<line x1="430" y1="70" x2="430" y2="650" stroke="#333333" stroke-width="2"/>
<text x="412.0" y="91.0" text-anchor="end" font-family="Helvetica, Arial, sans-serif" font-size="13" fill="#222222">
<tspan x="412.0" dy="0">Standard MLP h400/L2</tspan>
</text>
<rect x="430.0" y="87.0" width="249.7" height="24" fill="#2a6f97" rx="5"/>
<line x1="489.5" y1="99.0" x2="869.9" y2="99.0" stroke="#111111" stroke-width="2"/>
<line x1="489.5" y1="91.0" x2="489.5" y2="107.0" stroke="#111111" stroke-width="2"/>
<line x1="869.9" y1="91.0" x2="869.9" y2="107.0" stroke="#111111" stroke-width="2"/>
<text x="879.9" y="104.0" text-anchor="start" font-family="Helvetica, Arial, sans-serif" font-size="13" font-weight="700" fill="#222222">0.9793 +/- 0.0018</text>
<text x="412.0" y="149.0" text-anchor="end" font-family="Helvetica, Arial, sans-serif" font-size="13" fill="#222222">
<tspan x="412.0" dy="0">Standard MLP + Kalman h400/L2</tspan>
</text>
<rect x="430.0" y="145.0" width="257.0" height="24" fill="#4d908e" rx="5"/>
<line x1="577.7" y1="157.0" x2="796.2" y2="157.0" stroke="#111111" stroke-width="2"/>
<line x1="577.7" y1="149.0" x2="577.7" y2="165.0" stroke="#111111" stroke-width="2"/>
<line x1="796.2" y1="149.0" x2="796.2" y2="165.0" stroke="#111111" stroke-width="2"/>
<text x="806.2" y="162.0" text-anchor="start" font-family="Helvetica, Arial, sans-serif" font-size="13" font-weight="700" fill="#222222">0.9794 +/- 0.0010</text>
<text x="412.0" y="207.0" text-anchor="end" font-family="Helvetica, Arial, sans-serif" font-size="13" fill="#222222">
<tspan x="412.0" dy="0">Dropout MLP h400/L2</tspan>
</text>
<rect x="430.0" y="203.0" width="380.0" height="24" fill="#bc4749" rx="5"/>
<line x1="742.2" y1="215.0" x2="877.8" y2="215.0" stroke="#111111" stroke-width="2"/>
<line x1="742.2" y1="207.0" x2="742.2" y2="223.0" stroke="#111111" stroke-width="2"/>
<line x1="877.8" y1="207.0" x2="877.8" y2="223.0" stroke="#111111" stroke-width="2"/>
<text x="887.8" y="220.0" text-anchor="start" font-family="Helvetica, Arial, sans-serif" font-size="13" font-weight="700" fill="#222222">0.9805 +/- 0.0006</text>
<text x="412.0" y="265.0" text-anchor="end" font-family="Helvetica, Arial, sans-serif" font-size="13" fill="#222222">
<tspan x="412.0" dy="0">Dropout MLP + Kalman h400/L2</tspan>
</text>
<rect x="430.0" y="261.0" width="304.0" height="24" fill="#7a3e9d" rx="5"/>
<line x1="616.6" y1="273.0" x2="851.4" y2="273.0" stroke="#111111" stroke-width="2"/>
<line x1="616.6" y1="265.0" x2="616.6" y2="281.0" stroke="#111111" stroke-width="2"/>
<line x1="851.4" y1="265.0" x2="851.4" y2="281.0" stroke="#111111" stroke-width="2"/>
<text x="861.4" y="278.0" text-anchor="start" font-family="Helvetica, Arial, sans-serif" font-size="13" font-weight="700" fill="#222222">0.9798 +/- 0.0011</text>
<text x="412.0" y="323.0" text-anchor="end" font-family="Helvetica, Arial, sans-serif" font-size="13" fill="#222222">
<tspan x="412.0" dy="0">BBB h400/L2</tspan>
</text>
<rect x="430.0" y="319.0" width="351.0" height="24" fill="#2a6f97" rx="5"/>
<line x1="735.8" y1="331.0" x2="826.2" y2="331.0" stroke="#111111" stroke-width="2"/>
<line x1="735.8" y1="323.0" x2="735.8" y2="339.0" stroke="#111111" stroke-width="2"/>
<line x1="826.2" y1="323.0" x2="826.2" y2="339.0" stroke="#111111" stroke-width="2"/>
<text x="836.2" y="336.0" text-anchor="start" font-family="Helvetica, Arial, sans-serif" font-size="13" font-weight="700" fill="#222222">0.9802 +/- 0.0004</text>
<text x="412.0" y="381.0" text-anchor="end" font-family="Helvetica, Arial, sans-serif" font-size="13" fill="#222222">
<tspan x="412.0" dy="0">BBB + Kalman h400/L2</tspan>
</text>
<rect x="430.0" y="377.0" width="380.0" height="24" fill="#4d908e" rx="5"/>
<line x1="705.3" y1="389.0" x2="914.7" y2="389.0" stroke="#111111" stroke-width="2"/>
<line x1="705.3" y1="381.0" x2="705.3" y2="397.0" stroke="#111111" stroke-width="2"/>
<line x1="914.7" y1="381.0" x2="914.7" y2="397.0" stroke="#111111" stroke-width="2"/>
<text x="924.7" y="394.0" text-anchor="start" font-family="Helvetica, Arial, sans-serif" font-size="13" font-weight="700" fill="#222222">0.9805 +/- 0.0010</text>
<text x="412.0" y="439.0" text-anchor="end" font-family="Helvetica, Arial, sans-serif" font-size="13" fill="#222222">
<tspan x="412.0" dy="0">BBB + Dropout h400/L2</tspan>
</text>
<rect x="430.0" y="435.0" width="517.5" height="24" fill="#bc4749" rx="5"/>
<line x1="909.4" y1="447.0" x2="985.7" y2="447.0" stroke="#111111" stroke-width="2"/>
<line x1="909.4" y1="439.0" x2="909.4" y2="455.0" stroke="#111111" stroke-width="2"/>
<line x1="985.7" y1="439.0" x2="985.7" y2="455.0" stroke="#111111" stroke-width="2"/>
<text x="995.7" y="452.0" text-anchor="start" font-family="Helvetica, Arial, sans-serif" font-size="13" font-weight="700" fill="#222222">0.9818 +/- 0.0004</text>
<text x="412.0" y="497.0" text-anchor="end" font-family="Helvetica, Arial, sans-serif" font-size="13" fill="#222222">
<tspan x="412.0" dy="0">BBB + Dropout + Kalman h400/L2</tspan>
</text>
<rect x="430.0" y="493.0" width="524.8" height="24" fill="#7a3e9d" rx="5"/>
<line x1="927.4" y1="505.0" x2="982.1" y2="505.0" stroke="#111111" stroke-width="2"/>
<line x1="927.4" y1="497.0" x2="927.4" y2="513.0" stroke="#111111" stroke-width="2"/>
<line x1="982.1" y1="497.0" x2="982.1" y2="513.0" stroke="#111111" stroke-width="2"/>
<text x="992.1" y="510.0" text-anchor="start" font-family="Helvetica, Arial, sans-serif" font-size="13" font-weight="700" fill="#222222">0.9818 +/- 0.0003</text>
<text x="412.0" y="555.0" text-anchor="end" font-family="Helvetica, Arial, sans-serif" font-size="13" fill="#222222">
<tspan x="412.0" dy="0">Standard MLP h800/L2</tspan>
</text>
<rect x="430.0" y="551.0" width="317.0" height="24" fill="#2a6f97" rx="5"/>
<line x1="549.3" y1="563.0" x2="944.8" y2="563.0" stroke="#111111" stroke-width="2"/>
<line x1="549.3" y1="555.0" x2="549.3" y2="571.0" stroke="#111111" stroke-width="2"/>
<line x1="944.8" y1="555.0" x2="944.8" y2="571.0" stroke="#111111" stroke-width="2"/>
<text x="954.8" y="568.0" text-anchor="start" font-family="Helvetica, Arial, sans-serif" font-size="13" font-weight="700" fill="#222222">0.9799 +/- 0.0018</text>
<text x="412.0" y="613.0" text-anchor="end" font-family="Helvetica, Arial, sans-serif" font-size="13" fill="#222222">
<tspan x="412.0" dy="0">Standard MLP + Kalman h800/L2</tspan>
</text>
<rect x="430.0" y="609.0" width="321.4" height="24" fill="#4d908e" rx="5"/>
<line x1="542.4" y1="621.0" x2="960.3" y2="621.0" stroke="#111111" stroke-width="2"/>
<line x1="542.4" y1="613.0" x2="542.4" y2="629.0" stroke="#111111" stroke-width="2"/>
<line x1="960.3" y1="613.0" x2="960.3" y2="629.0" stroke="#111111" stroke-width="2"/>
<text x="970.3" y="626.0" text-anchor="start" font-family="Helvetica, Arial, sans-serif" font-size="13" font-weight="700" fill="#222222">0.9800 +/- 0.0019</text>
<line x1="430.0" y1="650" x2="430.0" y2="656" stroke="#333333" stroke-width="1"/>
<text x="430.0" y="675" text-anchor="middle" font-family="Helvetica, Arial, sans-serif" font-size="13" fill="#444444">0.977</text>
<line x1="430.0" y1="70" x2="430.0" y2="650" stroke="#e7e1d7" stroke-width="1"/>
<line x1="538.6" y1="650" x2="538.6" y2="656" stroke="#333333" stroke-width="1"/>
<text x="538.6" y="675" text-anchor="middle" font-family="Helvetica, Arial, sans-serif" font-size="13" fill="#444444">0.978</text>
<line x1="538.6" y1="70" x2="538.6" y2="650" stroke="#e7e1d7" stroke-width="1"/>
<line x1="647.1" y1="650" x2="647.1" y2="656" stroke="#333333" stroke-width="1"/>
<text x="647.1" y="675" text-anchor="middle" font-family="Helvetica, Arial, sans-serif" font-size="13" fill="#444444">0.979</text>
<line x1="647.1" y1="70" x2="647.1" y2="650" stroke="#e7e1d7" stroke-width="1"/>
<line x1="755.7" y1="650" x2="755.7" y2="656" stroke="#333333" stroke-width="1"/>
<text x="755.7" y="675" text-anchor="middle" font-family="Helvetica, Arial, sans-serif" font-size="13" fill="#444444">0.980</text>
<line x1="755.7" y1="70" x2="755.7" y2="650" stroke="#e7e1d7" stroke-width="1"/>
<line x1="864.3" y1="650" x2="864.3" y2="656" stroke="#333333" stroke-width="1"/>
<text x="864.3" y="675" text-anchor="middle" font-family="Helvetica, Arial, sans-serif" font-size="13" fill="#444444">0.981</text>
<line x1="864.3" y1="70" x2="864.3" y2="650" stroke="#e7e1d7" stroke-width="1"/>
<line x1="972.9" y1="650" x2="972.9" y2="656" stroke="#333333" stroke-width="1"/>
<text x="972.9" y="675" text-anchor="middle" font-family="Helvetica, Arial, sans-serif" font-size="13" fill="#444444">0.982</text>
<line x1="972.9" y1="70" x2="972.9" y2="650" stroke="#e7e1d7" stroke-width="1"/>
<line x1="1081.4" y1="650" x2="1081.4" y2="656" stroke="#333333" stroke-width="1"/>
<text x="1081.4" y="675" text-anchor="middle" font-family="Helvetica, Arial, sans-serif" font-size="13" fill="#444444">0.983</text>
<line x1="1081.4" y1="70" x2="1081.4" y2="650" stroke="#e7e1d7" stroke-width="1"/>
<line x1="1190.0" y1="650" x2="1190.0" y2="656" stroke="#333333" stroke-width="1"/>
<text x="1190.0" y="675" text-anchor="middle" font-family="Helvetica, Arial, sans-serif" font-size="13" fill="#444444">0.984</text>
</svg>