<svg xmlns="http://www.w3.org/2000/svg" width="920" height="460" viewBox="0 0 920 460">
<rect width="100%" height="100%" fill="#fffdf8"/>
<text x="460.0" y="36" text-anchor="middle" font-family="Helvetica, Arial, sans-serif" font-size="24" fill="#222222">Bayesian + Dropout Error by Trust Mode</text>
<line x1="90" y1="360" x2="880" y2="360" stroke="#333333" stroke-width="2"/>
<line x1="90" y1="70" x2="90" y2="360" stroke="#333333" stroke-width="2"/>
<text x="169.0" y="388" text-anchor="middle" font-family="Helvetica, Arial, sans-serif" font-size="14" fill="#222222">None</text>
<rect x="137.4" y="111.7" width="63.2" height="248.3" fill="#7a3e9d" rx="5"/>
<text x="169.0" y="103.7" text-anchor="middle" font-family="Helvetica, Arial, sans-serif" font-size="12" fill="#222222">0.0192</text>
<text x="327.0" y="388" text-anchor="middle" font-family="Helvetica, Arial, sans-serif" font-size="14" fill="#222222">Depth Decay</text>
<rect x="295.4" y="107.8" width="63.2" height="252.2" fill="#7a3e9d" rx="5"/>
<text x="327.0" y="99.8" text-anchor="middle" font-family="Helvetica, Arial, sans-serif" font-size="12" fill="#222222">0.0195</text>
<text x="485.0" y="388" text-anchor="middle" font-family="Helvetica, Arial, sans-serif" font-size="14" fill="#222222">Grad Norm</text>
<rect x="453.4" y="107.8" width="63.2" height="252.2" fill="#7a3e9d" rx="5"/>
<text x="485.0" y="99.8" text-anchor="middle" font-family="Helvetica, Arial, sans-serif" font-size="12" fill="#222222">0.0195</text>
<text x="643.0" y="388" text-anchor="middle" font-family="Helvetica, Arial, sans-serif" font-size="14" fill="#222222">Grad Var</text>
<rect x="611.4" y="120.8" width="63.2" height="239.2" fill="#7a3e9d" rx="5"/>
<text x="643.0" y="112.8" text-anchor="middle" font-family="Helvetica, Arial, sans-serif" font-size="12" fill="#222222">0.0185</text>
<text x="801.0" y="388" text-anchor="middle" font-family="Helvetica, Arial, sans-serif" font-size="14" fill="#222222">Kalmanlayer Beta0.95 Q0.0001 P1.0 R1.0</text>
<rect x="769.4" y="115.6" width="63.2" height="244.4" fill="#7a3e9d" rx="5"/>
<text x="801.0" y="107.6" text-anchor="middle" font-family="Helvetica, Arial, sans-serif" font-size="12" fill="#222222">0.0189</text>
<line x1="84" y1="360.0" x2="90" y2="360.0" stroke="#333333" stroke-width="1"/>
<text x="78" y="365.0" text-anchor="end" font-family="Helvetica, Arial, sans-serif" font-size="13" fill="#444444">0.000</text>
<line x1="84" y1="287.5" x2="90" y2="287.5" stroke="#333333" stroke-width="1"/>
<text x="78" y="292.5" text-anchor="end" font-family="Helvetica, Arial, sans-serif" font-size="13" fill="#444444">0.006</text>
<line x1="84" y1="215.0" x2="90" y2="215.0" stroke="#333333" stroke-width="1"/>
<text x="78" y="220.0" text-anchor="end" font-family="Helvetica, Arial, sans-serif" font-size="13" fill="#444444">0.011</text>
<line x1="84" y1="142.5" x2="90" y2="142.5" stroke="#333333" stroke-width="1"/>
<text x="78" y="147.5" text-anchor="end" font-family="Helvetica, Arial, sans-serif" font-size="13" fill="#444444">0.017</text>
<line x1="84" y1="70.0" x2="90" y2="70.0" stroke="#333333" stroke-width="1"/>
<text x="78" y="75.0" text-anchor="end" font-family="Helvetica, Arial, sans-serif" font-size="13" fill="#444444">0.022</text>
<rect x="102" y="46" width="18" height="18" fill="#7a3e9d" rx="3"/>
<text x="128" y="60" font-family="Helvetica, Arial, sans-serif" font-size="14" fill="#222222">Bayesian + Dropout Error</text>
</svg>