<svg xmlns="http://www.w3.org/2000/svg" width="1320" height="500" viewBox="0 0 1320 500">
<rect width="100%" height="100%" fill="#fffdf8"/>
<text x="660.0" y="36" text-anchor="middle" font-family="Helvetica, Arial, sans-serif" font-size="24" fill="#222222">MNIST Test Error</text>
<line x1="500" y1="440" x2="1190" y2="440" stroke="#333333" stroke-width="2"/>
<line x1="500" y1="70" x2="500" y2="440" stroke="#333333" stroke-width="2"/>
<rect x="500.0" y="86.0" width="600.0" height="91.4" fill="#2a6f97" rx="6"/>
<text x="482.0" y="131.7" text-anchor="end" font-family="Helvetica, Arial, sans-serif" font-size="13" fill="#222222">
<tspan x="482.0" dy="0">Standard MLP (none)</tspan>
</text>
<text x="1110.0" y="136.7" text-anchor="start" font-family="Helvetica, Arial, sans-serif" font-size="13" font-weight="700" fill="#222222">0.0224</text>
<rect x="500.0" y="209.3" width="508.9" height="91.4" fill="#4d908e" rx="6"/>
<text x="482.0" y="255.0" text-anchor="end" font-family="Helvetica, Arial, sans-serif" font-size="13" fill="#222222">
<tspan x="482.0" dy="0">Dropout MLP (none)</tspan>
</text>
<text x="1018.9" y="260.0" text-anchor="start" font-family="Helvetica, Arial, sans-serif" font-size="13" font-weight="700" fill="#222222">0.0190</text>
<rect x="500.0" y="332.7" width="517.0" height="91.4" fill="#bc4749" rx="6"/>
<text x="482.0" y="378.3" text-anchor="end" font-family="Helvetica, Arial, sans-serif" font-size="13" fill="#222222">
<tspan x="482.0" dy="0">Dropout MLP (Propagated uncertainty)</tspan>
</text>
<text x="1027.0" y="383.3" text-anchor="start" font-family="Helvetica, Arial, sans-serif" font-size="13" font-weight="700" fill="#222222">0.0193</text>
<line x1="500.0" y1="440" x2="500.0" y2="446" stroke="#333333" stroke-width="1"/>
<text x="500.0" y="464" text-anchor="middle" font-family="Helvetica, Arial, sans-serif" font-size="13" fill="#444444">0.000</text>
<line x1="500.0" y1="70" x2="500.0" y2="440" stroke="#e7e1d7" stroke-width="1"/>
<line x1="672.5" y1="440" x2="672.5" y2="446" stroke="#333333" stroke-width="1"/>
<text x="672.5" y="464" text-anchor="middle" font-family="Helvetica, Arial, sans-serif" font-size="13" fill="#444444">0.006</text>
<line x1="672.5" y1="70" x2="672.5" y2="440" stroke="#e7e1d7" stroke-width="1"/>
<line x1="845.0" y1="440" x2="845.0" y2="446" stroke="#333333" stroke-width="1"/>
<text x="845.0" y="464" text-anchor="middle" font-family="Helvetica, Arial, sans-serif" font-size="13" fill="#444444">0.013</text>
<line x1="845.0" y1="70" x2="845.0" y2="440" stroke="#e7e1d7" stroke-width="1"/>
<line x1="1017.5" y1="440" x2="1017.5" y2="446" stroke="#333333" stroke-width="1"/>
<text x="1017.5" y="464" text-anchor="middle" font-family="Helvetica, Arial, sans-serif" font-size="13" fill="#444444">0.019</text>
<line x1="1017.5" y1="70" x2="1017.5" y2="440" stroke="#e7e1d7" stroke-width="1"/>
<line x1="1190.0" y1="440" x2="1190.0" y2="446" stroke="#333333" stroke-width="1"/>
<text x="1190.0" y="464" text-anchor="middle" font-family="Helvetica, Arial, sans-serif" font-size="13" fill="#444444">0.026</text>
</svg>