<svg xmlns="http://www.w3.org/2000/svg" width="860" height="460" viewBox="0 0 860 460">
<rect width="100%" height="100%" fill="#fffdf8"/>
<text x="430.0" y="34" text-anchor="middle" font-family="Helvetica, Arial, sans-serif" font-size="24" fill="#222222">MNIST Validation Accuracy</text>
<line x1="90" y1="390" x2="680" y2="390" stroke="#333333" stroke-width="2"/>
<line x1="90" y1="70" x2="90" y2="390" stroke="#333333" stroke-width="2"/>
<text x="385.0" y="440" text-anchor="middle" font-family="Helvetica, Arial, sans-serif" font-size="16" fill="#333333">Epoch</text>
<text x="24" y="230.0" text-anchor="middle" font-family="Helvetica, Arial, sans-serif" font-size="16" fill="#333333" transform="rotate(-90 24 230.0)">Accuracy</text>
<line x1="84" y1="390.0" x2="90" y2="390.0" stroke="#333333" stroke-width="1"/>
<text x="78" y="395.0" text-anchor="end" font-family="Helvetica, Arial, sans-serif" font-size="13" fill="#444444">0.850</text>
<line x1="90" y1="390.0" x2="680" y2="390.0" stroke="#e7e1d7" stroke-width="1"/>
<line x1="84" y1="310.0" x2="90" y2="310.0" stroke="#333333" stroke-width="1"/>
<text x="78" y="315.0" text-anchor="end" font-family="Helvetica, Arial, sans-serif" font-size="13" fill="#444444">0.887</text>
<line x1="90" y1="310.0" x2="680" y2="310.0" stroke="#e7e1d7" stroke-width="1"/>
<line x1="84" y1="230.0" x2="90" y2="230.0" stroke="#333333" stroke-width="1"/>
<text x="78" y="235.0" text-anchor="end" font-family="Helvetica, Arial, sans-serif" font-size="13" fill="#444444">0.925</text>
<line x1="90" y1="230.0" x2="680" y2="230.0" stroke="#e7e1d7" stroke-width="1"/>
<line x1="84" y1="150.0" x2="90" y2="150.0" stroke="#333333" stroke-width="1"/>
<text x="78" y="155.0" text-anchor="end" font-family="Helvetica, Arial, sans-serif" font-size="13" fill="#444444">0.963</text>
<line x1="90" y1="150.0" x2="680" y2="150.0" stroke="#e7e1d7" stroke-width="1"/>
<line x1="84" y1="70.0" x2="90" y2="70.0" stroke="#333333" stroke-width="1"/>
<text x="78" y="75.0" text-anchor="end" font-family="Helvetica, Arial, sans-serif" font-size="13" fill="#444444">1.000</text>
<line x1="90.0" y1="390" x2="90.0" y2="396" stroke="#333333" stroke-width="1"/>
<text x="90.0" y="414" text-anchor="middle" font-family="Helvetica, Arial, sans-serif" font-size="12" fill="#444444">1</text>
<line x1="155.6" y1="390" x2="155.6" y2="396" stroke="#333333" stroke-width="1"/>
<text x="155.6" y="414" text-anchor="middle" font-family="Helvetica, Arial, sans-serif" font-size="12" fill="#444444">2</text>
<line x1="221.1" y1="390" x2="221.1" y2="396" stroke="#333333" stroke-width="1"/>
<text x="221.1" y="414" text-anchor="middle" font-family="Helvetica, Arial, sans-serif" font-size="12" fill="#444444">3</text>
<line x1="286.7" y1="390" x2="286.7" y2="396" stroke="#333333" stroke-width="1"/>
<text x="286.7" y="414" text-anchor="middle" font-family="Helvetica, Arial, sans-serif" font-size="12" fill="#444444">4</text>
<line x1="352.2" y1="390" x2="352.2" y2="396" stroke="#333333" stroke-width="1"/>
<text x="352.2" y="414" text-anchor="middle" font-family="Helvetica, Arial, sans-serif" font-size="12" fill="#444444">5</text>
<line x1="417.8" y1="390" x2="417.8" y2="396" stroke="#333333" stroke-width="1"/>
<text x="417.8" y="414" text-anchor="middle" font-family="Helvetica, Arial, sans-serif" font-size="12" fill="#444444">6</text>
<line x1="483.3" y1="390" x2="483.3" y2="396" stroke="#333333" stroke-width="1"/>
<text x="483.3" y="414" text-anchor="middle" font-family="Helvetica, Arial, sans-serif" font-size="12" fill="#444444">7</text>
<line x1="548.9" y1="390" x2="548.9" y2="396" stroke="#333333" stroke-width="1"/>
<text x="548.9" y="414" text-anchor="middle" font-family="Helvetica, Arial, sans-serif" font-size="12" fill="#444444">8</text>
<line x1="614.4" y1="390" x2="614.4" y2="396" stroke="#333333" stroke-width="1"/>
<text x="614.4" y="414" text-anchor="middle" font-family="Helvetica, Arial, sans-serif" font-size="12" fill="#444444">9</text>
<line x1="680.0" y1="390" x2="680.0" y2="396" stroke="#333333" stroke-width="1"/>
<text x="680.0" y="414" text-anchor="middle" font-family="Helvetica, Arial, sans-serif" font-size="12" fill="#444444">10</text>
<path d="M 90.0 166.7 L 155.6 131.2 L 221.1 123.0 L 286.7 115.5 L 352.2 120.5 L 417.8 111.6 L 483.3 115.2 L 548.9 122.6 L 614.4 120.5 L 680.0 117.3" fill="none" stroke="#2a6f97" stroke-width="3" stroke-linecap="round" stroke-linejoin="round"/>
<circle cx="90.0" cy="166.7" r="3.5" fill="#2a6f97"/>
<circle cx="155.6" cy="131.2" r="3.5" fill="#2a6f97"/>
<circle cx="221.1" cy="123.0" r="3.5" fill="#2a6f97"/>
<circle cx="286.7" cy="115.5" r="3.5" fill="#2a6f97"/>
<circle cx="352.2" cy="120.5" r="3.5" fill="#2a6f97"/>
<circle cx="417.8" cy="111.6" r="3.5" fill="#2a6f97"/>
<circle cx="483.3" cy="115.2" r="3.5" fill="#2a6f97"/>
<circle cx="548.9" cy="122.6" r="3.5" fill="#2a6f97"/>
<circle cx="614.4" cy="120.5" r="3.5" fill="#2a6f97"/>
<circle cx="680.0" cy="117.3" r="3.5" fill="#2a6f97"/>
<line x1="704" y1="88" x2="730" y2="88" stroke="#2a6f97" stroke-width="4" stroke-linecap="round"/>
<text x="740" y="93" font-family="Helvetica, Arial, sans-serif" font-size="14" fill="#222222">Standard MLP (no trust scaling)</text>
<path d="M 90.0 171.7 L 155.6 143.2 L 221.1 132.2 L 286.7 125.8 L 352.2 125.5 L 417.8 121.6 L 483.3 117.3 L 548.9 112.7 L 614.4 114.4 L 680.0 111.2" fill="none" stroke="#4d908e" stroke-width="3" stroke-linecap="round" stroke-linejoin="round"/>
<circle cx="90.0" cy="171.7" r="3.5" fill="#4d908e"/>
<circle cx="155.6" cy="143.2" r="3.5" fill="#4d908e"/>
<circle cx="221.1" cy="132.2" r="3.5" fill="#4d908e"/>
<circle cx="286.7" cy="125.8" r="3.5" fill="#4d908e"/>
<circle cx="352.2" cy="125.5" r="3.5" fill="#4d908e"/>
<circle cx="417.8" cy="121.6" r="3.5" fill="#4d908e"/>
<circle cx="483.3" cy="117.3" r="3.5" fill="#4d908e"/>
<circle cx="548.9" cy="112.7" r="3.5" fill="#4d908e"/>
<circle cx="614.4" cy="114.4" r="3.5" fill="#4d908e"/>
<circle cx="680.0" cy="111.2" r="3.5" fill="#4d908e"/>
<line x1="704" y1="114" x2="730" y2="114" stroke="#4d908e" stroke-width="4" stroke-linecap="round"/>
<text x="740" y="119" font-family="Helvetica, Arial, sans-serif" font-size="14" fill="#222222">Dropout MLP (no trust scaling)</text>
<path d="M 90.0 172.4 L 155.6 141.8 L 221.1 126.2 L 286.7 128.0 L 352.2 120.8 L 417.8 121.2 L 483.3 117.6 L 548.9 119.8 L 614.4 113.4 L 680.0 114.4" fill="none" stroke="#bc4749" stroke-width="3" stroke-linecap="round" stroke-linejoin="round"/>
<circle cx="90.0" cy="172.4" r="3.5" fill="#bc4749"/>
<circle cx="155.6" cy="141.8" r="3.5" fill="#bc4749"/>
<circle cx="221.1" cy="126.2" r="3.5" fill="#bc4749"/>
<circle cx="286.7" cy="128.0" r="3.5" fill="#bc4749"/>
<circle cx="352.2" cy="120.8" r="3.5" fill="#bc4749"/>
<circle cx="417.8" cy="121.2" r="3.5" fill="#bc4749"/>
<circle cx="483.3" cy="117.6" r="3.5" fill="#bc4749"/>
<circle cx="548.9" cy="119.8" r="3.5" fill="#bc4749"/>
<circle cx="614.4" cy="113.4" r="3.5" fill="#bc4749"/>
<circle cx="680.0" cy="114.4" r="3.5" fill="#bc4749"/>
<line x1="704" y1="140" x2="730" y2="140" stroke="#bc4749" stroke-width="4" stroke-linecap="round"/>
<text x="740" y="145" font-family="Helvetica, Arial, sans-serif" font-size="14" fill="#222222">Dropout MLP (propagatedUncertainty beta0.95 Q0.0001 P1.0 R1.0 lambda0.15)</text>
</svg>