<svg xmlns="http://www.w3.org/2000/svg" width="920" height="460" viewBox="0 0 920 460">
<rect width="100%" height="100%" fill="#fffdf8"/>
<text x="460.0" y="36" text-anchor="middle" font-family="Helvetica, Arial, sans-serif" font-size="24" fill="#222222">Bayes by Backprop Accuracy by Trust Mode</text>
<line x1="90" y1="360" x2="880" y2="360" stroke="#333333" stroke-width="2"/>
<line x1="90" y1="70" x2="90" y2="360" stroke="#333333" stroke-width="2"/>
<text x="169.0" y="388" text-anchor="middle" font-family="Helvetica, Arial, sans-serif" font-size="14" fill="#222222">None</text>
<rect x="137.4" y="188.5" width="63.2" height="171.5" fill="#bc4749" rx="5"/>
<text x="169.0" y="180.5" text-anchor="middle" font-family="Helvetica, Arial, sans-serif" font-size="12" fill="#222222">0.9797</text>
<text x="327.0" y="388" text-anchor="middle" font-family="Helvetica, Arial, sans-serif" font-size="14" fill="#222222">Depth Decay</text>
<rect x="295.4" y="183.2" width="63.2" height="176.8" fill="#bc4749" rx="5"/>
<text x="327.0" y="175.2" text-anchor="middle" font-family="Helvetica, Arial, sans-serif" font-size="12" fill="#222222">0.9800</text>
<text x="485.0" y="388" text-anchor="middle" font-family="Helvetica, Arial, sans-serif" font-size="14" fill="#222222">Grad Norm</text>
<rect x="453.4" y="172.6" width="63.2" height="187.4" fill="#bc4749" rx="5"/>
<text x="485.0" y="164.6" text-anchor="middle" font-family="Helvetica, Arial, sans-serif" font-size="12" fill="#222222">0.9806</text>
<text x="643.0" y="388" text-anchor="middle" font-family="Helvetica, Arial, sans-serif" font-size="14" fill="#222222">Grad Var</text>
<rect x="611.4" y="195.5" width="63.2" height="164.5" fill="#bc4749" rx="5"/>
<text x="643.0" y="187.5" text-anchor="middle" font-family="Helvetica, Arial, sans-serif" font-size="12" fill="#222222">0.9793</text>
<text x="801.0" y="388" text-anchor="middle" font-family="Helvetica, Arial, sans-serif" font-size="14" fill="#222222">Kalmanlayer Beta0.95 Q0.0001 P1.0 R1.0</text>
<rect x="769.4" y="158.4" width="63.2" height="201.6" fill="#bc4749" rx="5"/>
<text x="801.0" y="150.4" text-anchor="middle" font-family="Helvetica, Arial, sans-serif" font-size="12" fill="#222222">0.9814</text>
<line x1="84" y1="360.0" x2="90" y2="360.0" stroke="#333333" stroke-width="1"/>
<text x="78" y="365.0" text-anchor="end" font-family="Helvetica, Arial, sans-serif" font-size="13" fill="#444444">0.970</text>
<line x1="84" y1="287.5" x2="90" y2="287.5" stroke="#333333" stroke-width="1"/>
<text x="78" y="292.5" text-anchor="end" font-family="Helvetica, Arial, sans-serif" font-size="13" fill="#444444">0.974</text>
<line x1="84" y1="215.0" x2="90" y2="215.0" stroke="#333333" stroke-width="1"/>
<text x="78" y="220.0" text-anchor="end" font-family="Helvetica, Arial, sans-serif" font-size="13" fill="#444444">0.978</text>
<line x1="84" y1="142.5" x2="90" y2="142.5" stroke="#333333" stroke-width="1"/>
<text x="78" y="147.5" text-anchor="end" font-family="Helvetica, Arial, sans-serif" font-size="13" fill="#444444">0.982</text>
<line x1="84" y1="70.0" x2="90" y2="70.0" stroke="#333333" stroke-width="1"/>
<text x="78" y="75.0" text-anchor="end" font-family="Helvetica, Arial, sans-serif" font-size="13" fill="#444444">0.986</text>
<rect x="102" y="46" width="18" height="18" fill="#bc4749" rx="3"/>
<text x="128" y="60" font-family="Helvetica, Arial, sans-serif" font-size="14" fill="#222222">Bayes by Backprop Accuracy</text>
</svg>