<svg xmlns="http://www.w3.org/2000/svg" width="1320" height="1030" viewBox="0 0 1320 1030">
<rect width="100%" height="100%" fill="#fffdf8"/>
<text x="660.0" y="36" text-anchor="middle" font-family="Helvetica, Arial, sans-serif" font-size="24" fill="#222222">MNIST Test Error</text>
<line x1="500" y1="970" x2="1190" y2="970" stroke="#333333" stroke-width="2"/>
<line x1="500" y1="70" x2="500" y2="970" stroke="#333333" stroke-width="2"/>
<rect x="500.0" y="76.5" width="600.0" height="37.0" fill="#2a6f97" rx="6"/>
<text x="482.0" y="95.0" text-anchor="end" font-family="Helvetica, Arial, sans-serif" font-size="13" fill="#222222">
<tspan x="482.0" dy="0">Standard MLP</tspan>
</text>
<text x="1110.0" y="100.0" text-anchor="start" font-family="Helvetica, Arial, sans-serif" font-size="13" font-weight="700" fill="#222222">0.0224</text>
<rect x="500.0" y="126.5" width="508.9" height="37.0" fill="#4d908e" rx="6"/>
<text x="482.0" y="145.0" text-anchor="end" font-family="Helvetica, Arial, sans-serif" font-size="13" fill="#222222">
<tspan x="482.0" dy="0">Dropout MLP</tspan>
</text>
<text x="1018.9" y="150.0" text-anchor="start" font-family="Helvetica, Arial, sans-serif" font-size="13" font-weight="700" fill="#222222">0.0190</text>
<rect x="500.0" y="176.5" width="533.0" height="37.0" fill="#bc4749" rx="6"/>
<text x="482.0" y="195.0" text-anchor="end" font-family="Helvetica, Arial, sans-serif" font-size="13" fill="#222222">
<tspan x="482.0" dy="0">BBB</tspan>
</text>
<text x="1043.0" y="200.0" text-anchor="start" font-family="Helvetica, Arial, sans-serif" font-size="13" font-weight="700" fill="#222222">0.0199</text>
<rect x="500.0" y="226.5" width="487.5" height="37.0" fill="#7a3e9d" rx="6"/>
<text x="482.0" y="245.0" text-anchor="end" font-family="Helvetica, Arial, sans-serif" font-size="13" fill="#222222">
<tspan x="482.0" dy="0">BBB + Dropout</tspan>
</text>
<text x="997.5" y="250.0" text-anchor="start" font-family="Helvetica, Arial, sans-serif" font-size="13" font-weight="700" fill="#222222">0.0182</text>
<rect x="500.0" y="276.5" width="600.0" height="37.0" fill="#2a6f97" rx="6"/>
<text x="482.0" y="295.0" text-anchor="end" font-family="Helvetica, Arial, sans-serif" font-size="13" fill="#222222">
<tspan x="482.0" dy="0">Standard MLP (none)</tspan>
</text>
<text x="1110.0" y="300.0" text-anchor="start" font-family="Helvetica, Arial, sans-serif" font-size="13" font-weight="700" fill="#222222">0.0224</text>
<rect x="500.0" y="326.5" width="508.9" height="37.0" fill="#4d908e" rx="6"/>
<text x="482.0" y="345.0" text-anchor="end" font-family="Helvetica, Arial, sans-serif" font-size="13" fill="#222222">
<tspan x="482.0" dy="0">Dropout MLP (none)</tspan>
</text>
<text x="1018.9" y="350.0" text-anchor="start" font-family="Helvetica, Arial, sans-serif" font-size="13" font-weight="700" fill="#222222">0.0190</text>
<rect x="500.0" y="376.5" width="533.0" height="37.0" fill="#bc4749" rx="6"/>
<text x="482.0" y="395.0" text-anchor="end" font-family="Helvetica, Arial, sans-serif" font-size="13" fill="#222222">
<tspan x="482.0" dy="0">BBB (none)</tspan>
</text>
<text x="1043.0" y="400.0" text-anchor="start" font-family="Helvetica, Arial, sans-serif" font-size="13" font-weight="700" fill="#222222">0.0199</text>
<rect x="500.0" y="426.5" width="487.5" height="37.0" fill="#7a3e9d" rx="6"/>
<text x="482.0" y="445.0" text-anchor="end" font-family="Helvetica, Arial, sans-serif" font-size="13" fill="#222222">
<tspan x="482.0" dy="0">BBB + Dropout (none)</tspan>
</text>
<text x="997.5" y="450.0" text-anchor="start" font-family="Helvetica, Arial, sans-serif" font-size="13" font-weight="700" fill="#222222">0.0182</text>
<rect x="500.0" y="476.5" width="522.3" height="37.0" fill="#2a6f97" rx="6"/>
<text x="482.0" y="495.0" text-anchor="end" font-family="Helvetica, Arial, sans-serif" font-size="13" fill="#222222">
<tspan x="482.0" dy="0">BBB (Depth decay)</tspan>
</text>
<text x="1032.3" y="500.0" text-anchor="start" font-family="Helvetica, Arial, sans-serif" font-size="13" font-weight="700" fill="#222222">0.0195</text>
<rect x="500.0" y="526.5" width="514.3" height="37.0" fill="#4d908e" rx="6"/>
<text x="482.0" y="545.0" text-anchor="end" font-family="Helvetica, Arial, sans-serif" font-size="13" fill="#222222">
<tspan x="482.0" dy="0">BBB + Dropout (Depth decay)</tspan>
</text>
<text x="1024.3" y="550.0" text-anchor="start" font-family="Helvetica, Arial, sans-serif" font-size="13" font-weight="700" fill="#222222">0.0192</text>
<rect x="500.0" y="576.5" width="559.8" height="37.0" fill="#bc4749" rx="6"/>
<text x="482.0" y="595.0" text-anchor="end" font-family="Helvetica, Arial, sans-serif" font-size="13" fill="#222222">
<tspan x="482.0" dy="0">BBB (Grad norm)</tspan>
</text>
<text x="1069.8" y="600.0" text-anchor="start" font-family="Helvetica, Arial, sans-serif" font-size="13" font-weight="700" fill="#222222">0.0209</text>
<rect x="500.0" y="626.5" width="557.1" height="37.0" fill="#7a3e9d" rx="6"/>
<text x="482.0" y="645.0" text-anchor="end" font-family="Helvetica, Arial, sans-serif" font-size="13" fill="#222222">
<tspan x="482.0" dy="0">BBB + Dropout (Grad norm)</tspan>
</text>
<text x="1067.1" y="650.0" text-anchor="start" font-family="Helvetica, Arial, sans-serif" font-size="13" font-weight="700" fill="#222222">0.0208</text>
<rect x="500.0" y="676.5" width="543.8" height="37.0" fill="#2a6f97" rx="6"/>
<text x="482.0" y="695.0" text-anchor="end" font-family="Helvetica, Arial, sans-serif" font-size="13" fill="#222222">
<tspan x="482.0" dy="0">BBB (Grad var)</tspan>
</text>
<text x="1053.8" y="700.0" text-anchor="start" font-family="Helvetica, Arial, sans-serif" font-size="13" font-weight="700" fill="#222222">0.0203</text>
<rect x="500.0" y="726.5" width="562.5" height="37.0" fill="#4d908e" rx="6"/>
<text x="482.0" y="745.0" text-anchor="end" font-family="Helvetica, Arial, sans-serif" font-size="13" fill="#222222">
<tspan x="482.0" dy="0">BBB + Dropout (Grad var)</tspan>
</text>
<text x="1072.5" y="750.0" text-anchor="start" font-family="Helvetica, Arial, sans-serif" font-size="13" font-weight="700" fill="#222222">0.0210</text>
<rect x="500.0" y="776.5" width="492.9" height="37.0" fill="#bc4749" rx="6"/>
<text x="482.0" y="795.0" text-anchor="end" font-family="Helvetica, Arial, sans-serif" font-size="13" fill="#222222">
<tspan x="482.0" dy="0">BBB (Kalman layer)</tspan>
</text>
<text x="1002.9" y="800.0" text-anchor="start" font-family="Helvetica, Arial, sans-serif" font-size="13" font-weight="700" fill="#222222">0.0184</text>
<rect x="500.0" y="826.5" width="487.5" height="37.0" fill="#7a3e9d" rx="6"/>
<text x="482.0" y="845.0" text-anchor="end" font-family="Helvetica, Arial, sans-serif" font-size="13" fill="#222222">
<tspan x="482.0" dy="0">BBB + Dropout (Kalman layer)</tspan>
</text>
<text x="997.5" y="850.0" text-anchor="start" font-family="Helvetica, Arial, sans-serif" font-size="13" font-weight="700" fill="#222222">0.0182</text>
<rect x="500.0" y="876.5" width="511.6" height="37.0" fill="#2a6f97" rx="6"/>
<text x="482.0" y="895.0" text-anchor="end" font-family="Helvetica, Arial, sans-serif" font-size="13" fill="#222222">
<tspan x="482.0" dy="0">BBB (Propagated uncertainty)</tspan>
</text>
<text x="1021.6" y="900.0" text-anchor="start" font-family="Helvetica, Arial, sans-serif" font-size="13" font-weight="700" fill="#222222">0.0191</text>
<rect x="500.0" y="926.5" width="514.3" height="37.0" fill="#4d908e" rx="6"/>
<text x="482.0" y="945.0" text-anchor="end" font-family="Helvetica, Arial, sans-serif" font-size="13" fill="#222222">
<tspan x="482.0" dy="0">BBB + Dropout (Propagated uncertainty)</tspan>
</text>
<text x="1024.3" y="950.0" text-anchor="start" font-family="Helvetica, Arial, sans-serif" font-size="13" font-weight="700" fill="#222222">0.0192</text>
<line x1="500.0" y1="970" x2="500.0" y2="976" stroke="#333333" stroke-width="1"/>
<text x="500.0" y="994" text-anchor="middle" font-family="Helvetica, Arial, sans-serif" font-size="13" fill="#444444">0.000</text>
<line x1="500.0" y1="70" x2="500.0" y2="970" stroke="#e7e1d7" stroke-width="1"/>
<line x1="672.5" y1="970" x2="672.5" y2="976" stroke="#333333" stroke-width="1"/>
<text x="672.5" y="994" text-anchor="middle" font-family="Helvetica, Arial, sans-serif" font-size="13" fill="#444444">0.006</text>
<line x1="672.5" y1="70" x2="672.5" y2="970" stroke="#e7e1d7" stroke-width="1"/>
<line x1="845.0" y1="970" x2="845.0" y2="976" stroke="#333333" stroke-width="1"/>
<text x="845.0" y="994" text-anchor="middle" font-family="Helvetica, Arial, sans-serif" font-size="13" fill="#444444">0.013</text>
<line x1="845.0" y1="70" x2="845.0" y2="970" stroke="#e7e1d7" stroke-width="1"/>
<line x1="1017.5" y1="970" x2="1017.5" y2="976" stroke="#333333" stroke-width="1"/>
<text x="1017.5" y="994" text-anchor="middle" font-family="Helvetica, Arial, sans-serif" font-size="13" fill="#444444">0.019</text>
<line x1="1017.5" y1="70" x2="1017.5" y2="970" stroke="#e7e1d7" stroke-width="1"/>
<line x1="1190.0" y1="970" x2="1190.0" y2="976" stroke="#333333" stroke-width="1"/>
<text x="1190.0" y="994" text-anchor="middle" font-family="Helvetica, Arial, sans-serif" font-size="13" fill="#444444">0.026</text>
</svg>