<svg xmlns="http://www.w3.org/2000/svg" width="860" height="460" viewBox="0 0 860 460">
<rect width="100%" height="100%" fill="#fffdf8"/>
<text x="430.0" y="34" text-anchor="middle" font-family="Helvetica, Arial, sans-serif" font-size="24" fill="#222222">MNIST Validation Loss by Epoch</text>
<line x1="90" y1="390" x2="680" y2="390" stroke="#333333" stroke-width="2"/>
<line x1="90" y1="70" x2="90" y2="390" stroke="#333333" stroke-width="2"/>
<text x="385.0" y="440" text-anchor="middle" font-family="Helvetica, Arial, sans-serif" font-size="16" fill="#333333">Epoch</text>
<text x="24" y="230.0" text-anchor="middle" font-family="Helvetica, Arial, sans-serif" font-size="16" fill="#333333" transform="rotate(-90 24 230.0)">Validation Loss</text>
<line x1="84" y1="390.0" x2="90" y2="390.0" stroke="#333333" stroke-width="1"/>
<text x="78" y="395.0" text-anchor="end" font-family="Helvetica, Arial, sans-serif" font-size="13" fill="#444444">0.067</text>
<line x1="90" y1="390.0" x2="680" y2="390.0" stroke="#e7e1d7" stroke-width="1"/>
<line x1="84" y1="310.0" x2="90" y2="310.0" stroke="#333333" stroke-width="1"/>
<text x="78" y="315.0" text-anchor="end" font-family="Helvetica, Arial, sans-serif" font-size="13" fill="#444444">0.089</text>
<line x1="90" y1="310.0" x2="680" y2="310.0" stroke="#e7e1d7" stroke-width="1"/>
<line x1="84" y1="230.0" x2="90" y2="230.0" stroke="#333333" stroke-width="1"/>
<text x="78" y="235.0" text-anchor="end" font-family="Helvetica, Arial, sans-serif" font-size="13" fill="#444444">0.110</text>
<line x1="90" y1="230.0" x2="680" y2="230.0" stroke="#e7e1d7" stroke-width="1"/>
<line x1="84" y1="150.0" x2="90" y2="150.0" stroke="#333333" stroke-width="1"/>
<text x="78" y="155.0" text-anchor="end" font-family="Helvetica, Arial, sans-serif" font-size="13" fill="#444444">0.132</text>
<line x1="90" y1="150.0" x2="680" y2="150.0" stroke="#e7e1d7" stroke-width="1"/>
<line x1="84" y1="70.0" x2="90" y2="70.0" stroke="#333333" stroke-width="1"/>
<text x="78" y="75.0" text-anchor="end" font-family="Helvetica, Arial, sans-serif" font-size="13" fill="#444444">0.154</text>
<line x1="90.0" y1="390" x2="90.0" y2="396" stroke="#333333" stroke-width="1"/>
<text x="90.0" y="414" text-anchor="middle" font-family="Helvetica, Arial, sans-serif" font-size="12" fill="#444444">1</text>
<line x1="155.6" y1="390" x2="155.6" y2="396" stroke="#333333" stroke-width="1"/>
<text x="155.6" y="414" text-anchor="middle" font-family="Helvetica, Arial, sans-serif" font-size="12" fill="#444444">2</text>
<line x1="221.1" y1="390" x2="221.1" y2="396" stroke="#333333" stroke-width="1"/>
<text x="221.1" y="414" text-anchor="middle" font-family="Helvetica, Arial, sans-serif" font-size="12" fill="#444444">3</text>
<line x1="286.7" y1="390" x2="286.7" y2="396" stroke="#333333" stroke-width="1"/>
<text x="286.7" y="414" text-anchor="middle" font-family="Helvetica, Arial, sans-serif" font-size="12" fill="#444444">4</text>
<line x1="352.2" y1="390" x2="352.2" y2="396" stroke="#333333" stroke-width="1"/>
<text x="352.2" y="414" text-anchor="middle" font-family="Helvetica, Arial, sans-serif" font-size="12" fill="#444444">5</text>
<line x1="417.8" y1="390" x2="417.8" y2="396" stroke="#333333" stroke-width="1"/>
<text x="417.8" y="414" text-anchor="middle" font-family="Helvetica, Arial, sans-serif" font-size="12" fill="#444444">6</text>
<line x1="483.3" y1="390" x2="483.3" y2="396" stroke="#333333" stroke-width="1"/>
<text x="483.3" y="414" text-anchor="middle" font-family="Helvetica, Arial, sans-serif" font-size="12" fill="#444444">7</text>
<line x1="548.9" y1="390" x2="548.9" y2="396" stroke="#333333" stroke-width="1"/>
<text x="548.9" y="414" text-anchor="middle" font-family="Helvetica, Arial, sans-serif" font-size="12" fill="#444444">8</text>
<line x1="614.4" y1="390" x2="614.4" y2="396" stroke="#333333" stroke-width="1"/>
<text x="614.4" y="414" text-anchor="middle" font-family="Helvetica, Arial, sans-serif" font-size="12" fill="#444444">9</text>
<line x1="680.0" y1="390" x2="680.0" y2="396" stroke="#333333" stroke-width="1"/>
<text x="680.0" y="414" text-anchor="middle" font-family="Helvetica, Arial, sans-serif" font-size="12" fill="#444444">10</text>
<path d="M 90.0 112.8 L 155.6 292.2 L 221.1 325.7 L 286.7 374.8 L 352.2 309.0 L 417.8 361.5 L 483.3 330.0 L 548.9 259.8 L 614.4 303.2 L 680.0 290.6" fill="none" stroke="#2a6f97" stroke-width="3" stroke-linecap="round" stroke-linejoin="round"/>
<circle cx="90.0" cy="112.8" r="3.5" fill="#2a6f97"/>
<circle cx="155.6" cy="292.2" r="3.5" fill="#2a6f97"/>
<circle cx="221.1" cy="325.7" r="3.5" fill="#2a6f97"/>
<circle cx="286.7" cy="374.8" r="3.5" fill="#2a6f97"/>
<circle cx="352.2" cy="309.0" r="3.5" fill="#2a6f97"/>
<circle cx="417.8" cy="361.5" r="3.5" fill="#2a6f97"/>
<circle cx="483.3" cy="330.0" r="3.5" fill="#2a6f97"/>
<circle cx="548.9" cy="259.8" r="3.5" fill="#2a6f97"/>
<circle cx="614.4" cy="303.2" r="3.5" fill="#2a6f97"/>
<circle cx="680.0" cy="290.6" r="3.5" fill="#2a6f97"/>
<line x1="704" y1="88" x2="730" y2="88" stroke="#2a6f97" stroke-width="4" stroke-linecap="round"/>
<text x="740" y="93" font-family="Helvetica, Arial, sans-serif" font-size="14" fill="#222222">Standard MLP</text>
<path d="M 90.0 70.0 L 155.6 233.1 L 221.1 300.8 L 286.7 318.7 L 352.2 336.1 L 417.8 343.9 L 483.3 360.5 L 548.9 374.1 L 614.4 374.5 L 680.0 390.0" fill="none" stroke="#4d908e" stroke-width="3" stroke-linecap="round" stroke-linejoin="round"/>
<circle cx="90.0" cy="70.0" r="3.5" fill="#4d908e"/>
<circle cx="155.6" cy="233.1" r="3.5" fill="#4d908e"/>
<circle cx="221.1" cy="300.8" r="3.5" fill="#4d908e"/>
<circle cx="286.7" cy="318.7" r="3.5" fill="#4d908e"/>
<circle cx="352.2" cy="336.1" r="3.5" fill="#4d908e"/>
<circle cx="417.8" cy="343.9" r="3.5" fill="#4d908e"/>
<circle cx="483.3" cy="360.5" r="3.5" fill="#4d908e"/>
<circle cx="548.9" cy="374.1" r="3.5" fill="#4d908e"/>
<circle cx="614.4" cy="374.5" r="3.5" fill="#4d908e"/>
<circle cx="680.0" cy="390.0" r="3.5" fill="#4d908e"/>
<line x1="704" y1="114" x2="730" y2="114" stroke="#4d908e" stroke-width="4" stroke-linecap="round"/>
<text x="740" y="119" font-family="Helvetica, Arial, sans-serif" font-size="14" fill="#222222">Dropout MLP</text>
<path d="M 90.0 179.8 L 155.6 302.6 L 221.1 342.0 L 286.7 359.6 L 352.2 360.4 L 417.8 340.9 L 483.3 332.0 L 548.9 372.1 L 614.4 382.7 L 680.0 372.1" fill="none" stroke="#bc4749" stroke-width="3" stroke-linecap="round" stroke-linejoin="round"/>
<circle cx="90.0" cy="179.8" r="3.5" fill="#bc4749"/>
<circle cx="155.6" cy="302.6" r="3.5" fill="#bc4749"/>
<circle cx="221.1" cy="342.0" r="3.5" fill="#bc4749"/>
<circle cx="286.7" cy="359.6" r="3.5" fill="#bc4749"/>
<circle cx="352.2" cy="360.4" r="3.5" fill="#bc4749"/>
<circle cx="417.8" cy="340.9" r="3.5" fill="#bc4749"/>
<circle cx="483.3" cy="332.0" r="3.5" fill="#bc4749"/>
<circle cx="548.9" cy="372.1" r="3.5" fill="#bc4749"/>
<circle cx="614.4" cy="382.7" r="3.5" fill="#bc4749"/>
<circle cx="680.0" cy="372.1" r="3.5" fill="#bc4749"/>
<line x1="704" y1="140" x2="730" y2="140" stroke="#bc4749" stroke-width="4" stroke-linecap="round"/>
<text x="740" y="145" font-family="Helvetica, Arial, sans-serif" font-size="14" fill="#222222">Bayes by Backprop</text>
<path d="M 90.0 150.4 L 155.6 279.2 L 221.1 334.9 L 286.7 337.5 L 352.2 348.4 L 417.8 368.7 L 483.3 372.6 L 548.9 372.8 L 614.4 384.9 L 680.0 372.4" fill="none" stroke="#7a3e9d" stroke-width="3" stroke-linecap="round" stroke-linejoin="round"/>
<circle cx="90.0" cy="150.4" r="3.5" fill="#7a3e9d"/>
<circle cx="155.6" cy="279.2" r="3.5" fill="#7a3e9d"/>
<circle cx="221.1" cy="334.9" r="3.5" fill="#7a3e9d"/>
<circle cx="286.7" cy="337.5" r="3.5" fill="#7a3e9d"/>
<circle cx="352.2" cy="348.4" r="3.5" fill="#7a3e9d"/>
<circle cx="417.8" cy="368.7" r="3.5" fill="#7a3e9d"/>
<circle cx="483.3" cy="372.6" r="3.5" fill="#7a3e9d"/>
<circle cx="548.9" cy="372.8" r="3.5" fill="#7a3e9d"/>
<circle cx="614.4" cy="384.9" r="3.5" fill="#7a3e9d"/>
<circle cx="680.0" cy="372.4" r="3.5" fill="#7a3e9d"/>
<line x1="704" y1="166" x2="730" y2="166" stroke="#7a3e9d" stroke-width="4" stroke-linecap="round"/>
<text x="740" y="171" font-family="Helvetica, Arial, sans-serif" font-size="14" fill="#222222">Bayesian + Dropout</text>
</svg>