<svg xmlns="http://www.w3.org/2000/svg" width="1080" height="620" viewBox="0 0 1080 620">
<rect width="100%" height="100%" fill="#fffdf8"/>
<text x="540.0" y="34.0" text-anchor="middle" font-family="Helvetica, Arial, sans-serif" font-size="26" font-weight="700" fill="#222222">
<tspan x="540.0" dy="0.0">MNIST Test Accuracy</tspan>
</text>
<text x="540.0" y="60.0" text-anchor="middle" font-family="Helvetica, Arial, sans-serif" font-size="14" font-weight="400" fill="#555555">
<tspan x="540.0" dy="0.0">Best validation checkpoint; paper-recreation baselines grouped in blue</tspan>
</text>
<line x1="92.0" y1="466.0" x2="1032.0" y2="466.0" stroke="#e4ded3" stroke-width="1"/>
<line x1="86.0" y1="466.0" x2="92.0" y2="466.0" stroke="#333333" stroke-width="1.2"/>
<text x="80.0" y="471.0" text-anchor="end" font-family="Helvetica, Arial, sans-serif" font-size="13" font-weight="400" fill="#444444">
<tspan x="80.0" dy="0.0">0.975</tspan>
</text>
<line x1="92.0" y1="370.0" x2="1032.0" y2="370.0" stroke="#e4ded3" stroke-width="1"/>
<line x1="86.0" y1="370.0" x2="92.0" y2="370.0" stroke="#333333" stroke-width="1.2"/>
<text x="80.0" y="375.0" text-anchor="end" font-family="Helvetica, Arial, sans-serif" font-size="13" font-weight="400" fill="#444444">
<tspan x="80.0" dy="0.0">0.977</tspan>
</text>
<line x1="92.0" y1="274.0" x2="1032.0" y2="274.0" stroke="#e4ded3" stroke-width="1"/>
<line x1="86.0" y1="274.0" x2="92.0" y2="274.0" stroke="#333333" stroke-width="1.2"/>
<text x="80.0" y="279.0" text-anchor="end" font-family="Helvetica, Arial, sans-serif" font-size="13" font-weight="400" fill="#444444">
<tspan x="80.0" dy="0.0">0.979</tspan>
</text>
<line x1="92.0" y1="178.0" x2="1032.0" y2="178.0" stroke="#e4ded3" stroke-width="1"/>
<line x1="86.0" y1="178.0" x2="92.0" y2="178.0" stroke="#333333" stroke-width="1.2"/>
<text x="80.0" y="183.0" text-anchor="end" font-family="Helvetica, Arial, sans-serif" font-size="13" font-weight="400" fill="#444444">
<tspan x="80.0" dy="0.0">0.981</tspan>
</text>
<line x1="92.0" y1="82.0" x2="1032.0" y2="82.0" stroke="#e4ded3" stroke-width="1"/>
<line x1="86.0" y1="82.0" x2="92.0" y2="82.0" stroke="#333333" stroke-width="1.2"/>
<text x="80.0" y="87.0" text-anchor="end" font-family="Helvetica, Arial, sans-serif" font-size="13" font-weight="400" fill="#444444">
<tspan x="80.0" dy="0.0">0.983</tspan>
</text>
<line x1="92.0" y1="466.0" x2="1032.0" y2="466.0" stroke="#2b2b2b" stroke-width="2"/>
<line x1="92.0" y1="82.0" x2="92.0" y2="466.0" stroke="#2b2b2b" stroke-width="2"/>
<line x1="120.2" y1="568.0" x2="533.8" y2="568.0" stroke="#3b6fb6" stroke-width="4" stroke-linecap="round"/>
<text x="327.0" y="592.0" text-anchor="middle" font-family="Helvetica, Arial, sans-serif" font-size="13" font-weight="700" fill="#3b6fb6">
<tspan x="327.0" dy="0.0">Paper recreation</tspan>
</text>
<line x1="590.2" y1="568.0" x2="690.5" y2="568.0" stroke="#6f5aa8" stroke-width="4" stroke-linecap="round"/>
<text x="640.3" y="592.0" text-anchor="middle" font-family="Helvetica, Arial, sans-serif" font-size="13" font-weight="700" fill="#6f5aa8">
<tspan x="640.3" dy="0.0">Extension</tspan>
</text>
<line x1="746.9" y1="568.0" x2="1003.8" y2="568.0" stroke="#c94f4f" stroke-width="4" stroke-linecap="round"/>
<text x="875.3" y="592.0" text-anchor="middle" font-family="Helvetica, Arial, sans-serif" font-size="13" font-weight="700" fill="#c94f4f">
<tspan x="875.3" dy="0.0">Kalman extension</tspan>
</text>
<rect x="126.5" y="341.2" width="87.7" height="124.8" fill="#3b6fb6" rx="7"/>
<text x="170.3" y="330.2" text-anchor="middle" font-family="Helvetica, Arial, sans-serif" font-size="15" font-weight="700" fill="#222222">
<tspan x="170.3" dy="0.0">0.9776</tspan>
</text>
<text x="170.3" y="494.0" text-anchor="middle" font-family="Helvetica, Arial, sans-serif" font-size="14" font-weight="700" fill="#222222">
<tspan x="170.3" dy="0.0">Standard</tspan>
<tspan x="170.3" dy="16.5">MLP</tspan>
</text>
<rect x="283.1" y="178.0" width="87.7" height="288.0" fill="#5b8fd1" rx="7"/>
<text x="327.0" y="167.0" text-anchor="middle" font-family="Helvetica, Arial, sans-serif" font-size="15" font-weight="700" fill="#222222">
<tspan x="327.0" dy="0.0">0.9810</tspan>
</text>
<text x="327.0" y="494.0" text-anchor="middle" font-family="Helvetica, Arial, sans-serif" font-size="14" font-weight="700" fill="#222222">
<tspan x="327.0" dy="0.0">Dropout</tspan>
<tspan x="327.0" dy="16.5">MLP</tspan>
</text>
<rect x="439.8" y="221.2" width="87.7" height="244.8" fill="#7aa7df" rx="7"/>
<text x="483.7" y="210.2" text-anchor="middle" font-family="Helvetica, Arial, sans-serif" font-size="15" font-weight="700" fill="#222222">
<tspan x="483.7" dy="0.0">0.9801</tspan>
</text>
<text x="483.7" y="494.0" text-anchor="middle" font-family="Helvetica, Arial, sans-serif" font-size="14" font-weight="700" fill="#222222">
<tspan x="483.7" dy="0.0">BBB</tspan>
</text>
<rect x="596.5" y="139.6" width="87.7" height="326.4" fill="#6f5aa8" rx="7"/>
<text x="640.3" y="128.6" text-anchor="middle" font-family="Helvetica, Arial, sans-serif" font-size="15" font-weight="700" fill="#222222">
<tspan x="640.3" dy="0.0">0.9818</tspan>
</text>
<text x="640.3" y="494.0" text-anchor="middle" font-family="Helvetica, Arial, sans-serif" font-size="14" font-weight="700" fill="#222222">
<tspan x="640.3" dy="0.0">BBB +</tspan>
<tspan x="640.3" dy="16.5">Dropout</tspan>
</text>
<rect x="753.1" y="149.2" width="87.7" height="316.8" fill="#d1842f" rx="7"/>
<text x="797.0" y="138.2" text-anchor="middle" font-family="Helvetica, Arial, sans-serif" font-size="15" font-weight="700" fill="#222222">
<tspan x="797.0" dy="0.0">0.9816</tspan>
</text>
<text x="797.0" y="494.0" text-anchor="middle" font-family="Helvetica, Arial, sans-serif" font-size="14" font-weight="700" fill="#222222">
<tspan x="797.0" dy="0.0">BBB</tspan>
<tspan x="797.0" dy="16.5">Kalman</tspan>
</text>
<rect x="909.8" y="139.6" width="87.7" height="326.4" fill="#c94f4f" rx="7"/>
<text x="953.7" y="128.6" text-anchor="middle" font-family="Helvetica, Arial, sans-serif" font-size="15" font-weight="700" fill="#222222">
<tspan x="953.7" dy="0.0">0.9818</tspan>
</text>
<text x="953.7" y="494.0" text-anchor="middle" font-family="Helvetica, Arial, sans-serif" font-size="14" font-weight="700" fill="#222222">
<tspan x="953.7" dy="0.0">BBB + Dropout</tspan>
<tspan x="953.7" dy="16.5">Kalman</tspan>
</text>
</svg>